<?xml version="1.0" encoding="UTF-8" standalone="no"?>
<!DOCTYPE svg PUBLIC "-//W3C//DTD SVG 1.1//EN" "http://www.w3.org/Graphics/SVG/1.1/DTD/svg11.dtd">
<svg width="100%" height="100%" viewBox="0 0 1080 1080" version="1.1" xmlns="http://www.w3.org/2000/svg" xmlns:xlink="http://www.w3.org/1999/xlink" xml:space="preserve" xmlns:serif="http://www.serif.com/" style="fill-rule:evenodd;clip-rule:evenodd;stroke-linejoin:round;stroke-miterlimit:2;">
    <g transform="matrix(4.56664,0,0,4.43792,-352.903,-231.971)">
        <path d="M202.791,69.592L203.736,69.592L216.681,69.622L238.55,69.692L252.447,69.731L252.401,83.622L252.362,98.978L252.316,112.869L252.124,184.069L252.078,197.961L217.257,197.868L217.2,221.665L238.117,221.718C245.79,221.74 251.989,227.977 251.968,235.648L251.893,264.444C251.872,272.118 245.627,278.327 237.953,278.306L203.146,278.199L203.178,264.306L237.999,264.398L238.077,235.608L217.153,235.555C209.768,235.534 203.743,229.747 203.324,222.468L203.295,222.468L203.295,221.615L203.363,197.822C203.384,190.149 209.629,183.947 217.303,183.969L238.223,184.031L238.426,112.83L216.567,112.768L216.428,160.174L202.535,160.142L202.791,69.592ZM216.645,83.514L216.599,98.877L238.472,98.939L238.511,83.584L216.645,83.514ZM188.822,69.653L188.876,278.26L174.984,278.267L174.946,100.542L171.926,106.551L171.926,106.558L168.79,112.792L159.521,112.792L156.392,106.574L156.369,106.566L156.377,106.551L153.078,99.977L153.125,278.267L139.233,278.274L139.171,69.669L153.071,69.661L153.071,69.824L153.388,69.661L164.151,91.079L174.907,69.661L174.93,69.669L174.93,69.661L188.822,69.653ZM77.279,69.661L91.178,69.661L91.178,264.377L113.037,264.377L113.037,69.661L126.929,69.661L126.929,264.377C126.929,266.225 126.571,267.988 125.915,269.601C125.852,269.754 125.781,269.907 125.713,270.06C125.386,270.789 125.003,271.485 124.56,272.143C124.435,272.328 124.306,272.512 124.173,272.694C123.772,273.227 123.335,273.732 122.864,274.201C122.856,274.208 122.848,274.211 122.84,274.218C122.375,274.681 121.881,275.118 121.354,275.512C120.462,276.18 119.482,276.735 118.442,277.176C118.027,277.35 117.607,277.513 117.172,277.648C115.867,278.054 114.476,278.267 113.037,278.267L91.178,278.267C89.739,278.267 88.348,278.054 87.043,277.648C86.826,277.581 86.605,277.499 86.392,277.424C85.329,277.033 84.327,276.515 83.404,275.889C82.849,275.516 82.325,275.107 81.832,274.659C81.502,274.361 81.186,274.044 80.887,273.714C80.438,273.223 80.022,272.697 79.648,272.143C79.024,271.219 78.512,270.216 78.123,269.154C78.045,268.94 77.974,268.72 77.906,268.503C77.5,267.199 77.279,265.813 77.279,264.377L77.279,69.661ZM278.017,69.661L299.876,69.661C301.077,69.661 302.243,69.809 303.355,70.095C303.86,70.225 304.35,70.391 304.834,70.575C305.196,70.714 305.555,70.857 305.9,71.024C306.309,71.219 306.703,71.435 307.087,71.667C307.51,71.924 307.919,72.204 308.31,72.503C308.601,72.726 308.879,72.963 309.152,73.208C309.184,73.235 309.209,73.266 309.238,73.293C312.021,75.834 313.776,79.487 313.776,83.553L313.776,264.377C313.776,268.212 312.216,271.688 309.703,274.201C309.696,274.208 309.696,274.211 309.689,274.218C308.594,275.31 307.308,276.227 305.9,276.906C305.698,277.001 305.491,277.087 305.282,277.176C304.66,277.439 304.02,277.663 303.355,277.833C302.243,278.121 301.077,278.267 299.876,278.267L278.017,278.267C274.662,278.267 271.584,277.08 269.181,275.1C269.01,274.958 268.843,274.808 268.68,274.659C267.034,273.163 265.74,271.283 264.962,269.154C264.884,268.94 264.813,268.72 264.745,268.503C264.34,267.199 264.127,265.813 264.127,264.377L264.127,83.553C264.127,75.88 270.343,69.661 278.017,69.661ZM278.017,83.553L278.017,264.377L299.876,264.377L299.876,83.553L278.017,83.553Z" style="fill:rgb(22,31,40);"/>
    </g>
</svg>
